<?xml version="1.0" standalone="no"?><!DOCTYPE svg PUBLIC "-//W3C//DTD SVG 1.1//EN" "http://www.w3.org/Graphics/SVG/1.1/DTD/svg11.dtd"><svg class="icon" width="200px" height="200.00px" viewBox="0 0 1024 1024" version="1.1" xmlns="http://www.w3.org/2000/svg"><path fill="#333333" d="M144.768 415.808C189.824 415.808 226.304 458.688 226.304 511.552 226.304 564.416 189.824 607.232 144.768 607.232 99.776 607.232 63.296 564.416 63.296 511.552 63.296 458.688 99.776 415.808 144.768 415.808L144.768 415.808ZM511.616 415.808C556.608 415.808 593.152 458.688 593.152 511.552 593.152 564.416 556.608 607.232 511.616 607.232 466.624 607.232 430.08 564.416 430.08 511.552 430.08 458.688 466.624 415.808 511.616 415.808L511.616 415.808ZM878.4 415.808C923.456 415.808 959.936 458.688 959.936 511.552 959.936 564.416 923.456 607.232 878.4 607.232 833.408 607.232 796.928 564.416 796.928 511.552 796.928 458.688 833.408 415.808 878.4 415.808L878.4 415.808Z" /></svg>