<?xml version="1.0" standalone="no"?><!DOCTYPE svg PUBLIC "-//W3C//DTD SVG 1.1//EN" "http://www.w3.org/Graphics/SVG/1.1/DTD/svg11.dtd"><svg class="icon" width="200px" height="200.00px" viewBox="0 0 1024 1024" version="1.1" xmlns="http://www.w3.org/2000/svg"><path fill="#333333" d="M32 352c32 0 32-32 32-32L64 128.448C64 92.864 92.8 64 128.448 64L320 64c0 0 32 0 32-32S320 0 320 0L128.384 0C57.408 0 0 57.472 0 128.384L0 320C0 320 0 352 32 352zM192 480c0 17.664 14.336 32 32 32l512 0c17.664 0 32-14.336 32-32S753.664 448 736 448L224 448C206.336 448 192 462.336 192 480zM831.616 0 640 0c0 0-32 0-32 32s32 32 32 32l191.552 0c35.648 0 64.448 28.864 64.448 64.448L896 320c0 0 0 32 32 32s32-32 32-32L960 128.384C960 57.472 902.592 0 831.616 0zM320 896 128.448 896C92.8 896 64 867.136 64 831.552L64 640c0 0 0-32-32-32s-32 32-32 32l0 191.616c0 70.912 57.408 128.384 128.384 128.384L320 960c0 0 32 0 32-32S320 896 320 896zM928 608c-32 0-32 32-32 32l0 191.552c0 35.584-28.8 64.448-64.448 64.448L640 896c0 0-32 0-32 32s32 32 32 32l191.616 0c70.976 0 128.384-57.472 128.384-128.384L960 640C960 640 960 608 928 608z" /></svg>