<?xml version="1.0" standalone="no"?><!DOCTYPE svg PUBLIC "-//W3C//DTD SVG 1.1//EN" "http://www.w3.org/Graphics/SVG/1.1/DTD/svg11.dtd"><svg class="icon" width="200px" height="200.00px" viewBox="0 0 1024 1024" version="1.1" xmlns="http://www.w3.org/2000/svg"><path fill="#333333" d="M512.426 7.41c-278.677 0-504.593 225.866-504.593 504.562s225.916 504.618 504.593 504.618 504.587-225.922 504.587-504.618S791.103 7.41 512.426 7.41zM512.426 953.497c-243.842 0-441.514-197.678-441.514-441.526 0-243.816 197.672-441.501 441.514-441.501s441.507 197.685 441.507 441.501C953.934 755.819 756.268 953.497 512.426 953.497zM514.334 127.688c-212.251 0-384.315 172.045-384.315 384.315s172.064 384.309 384.315 384.309c212.257 0 384.315-172.039 384.315-384.309S726.591 127.688 514.334 127.688zM514.33 640.118c-70.746 0-128.105-57.327-128.105-128.086s57.359-128.143 128.105-128.143c70.752 0 128.105 57.385 128.105 128.143S585.083 640.118 514.33 640.118zM546.357 193.323c64.414 6.395 123.206 31.878 170.656 70.708l-91.345 91.35c1.178 0.838 2.344 1.692 3.502 2.556-24.015-17.923-52.367-30.35-83.191-35.456 0.126 0.021 0.253 0.039 0.379 0.06M542.372 321.916c0.026 0.004 0.052 0.007 0.079 0.011C542.424 321.923 542.398 321.92 542.372 321.916zM482.304 322.542c0.126-0.021 0.253-0.039 0.379-0.06-30.825 5.106-59.177 17.534-83.193 35.458 1.159-0.865 2.325-1.719 3.504-2.558l-91.341-91.345c47.449-38.831 106.24-64.315 170.651-70.712M486.289 321.916c-0.026 0.004-0.053 0.007-0.079 0.011C486.236 321.923 486.262 321.92 486.289 321.916zM195.662 479.964c6.397-64.399 31.873-123.181 70.693-170.625l91.337 91.338c0.835-1.172 1.685-2.333 2.545-3.486-17.854 23.919-30.255 52.144-35.398 82.837 0.004-0.021 0.007-0.043 0.01-0.065M324.842 544.036c4.899 29.197 16.373 56.167 32.867 79.322l-91.321 91.327c-38.838-47.448-64.327-106.239-70.726-170.648L324.842 544.037zM403.007 668.643c23.148 16.48 50.109 27.944 79.296 32.842l0 129.165c-64.397-6.395-123.177-31.868-170.621-70.683L403.007 668.643zM546.357 701.485c29.188-4.898 56.149-16.363 79.297-32.843l91.328 91.329c-47.444 38.814-106.225 64.286-170.625 70.679L546.357 701.485zM670.953 623.354c16.493-23.154 27.966-50.123 32.864-79.319l129.188 0c-6.398 64.41-31.887 123.203-70.725 170.651L670.953 623.354zM703.812 479.964c0.004 0.021 0.007 0.043 0.01 0.065-5.142-30.693-17.544-58.916-35.396-82.835 0.86 1.153 1.71 2.314 2.545 3.486l91.343-91.343c38.82 47.445 64.295 106.227 70.692 170.627L703.812 479.964z" /></svg>