<?xml version="1.0" standalone="no"?><!DOCTYPE svg PUBLIC "-//W3C//DTD SVG 1.1//EN" "http://www.w3.org/Graphics/SVG/1.1/DTD/svg11.dtd"><svg class="icon" width="200px" height="200.00px" viewBox="0 0 1024 1024" version="1.1" xmlns="http://www.w3.org/2000/svg"><path fill="#333333" d="M676.864 747.328c-49.984 35.072-108.544 52.544-168.32 51.84-7.936-0.128-15.744-0.704-23.552-1.28-3.136-0.32-6.336-0.832-9.472-1.28-6.208-0.768-12.16-1.536-18.176-2.752-3.648-0.64-7.36-1.664-10.88-2.496-5.888-1.28-11.648-2.56-17.408-4.224-2.688-1.024-5.312-1.856-8-2.944-6.656-2.048-13.184-4.416-19.52-7.04-1.408-0.64-2.816-1.152-4.288-1.728-7.424-3.392-14.784-6.912-21.888-10.624-0.256-0.192-0.64-0.32-0.896-0.512-24.128-13.312-46.08-29.568-65.408-49.088-0.32-0.32-0.576-0.704-0.96-1.024-6.016-6.016-11.712-12.16-17.152-18.88-1.088-1.344-2.176-2.688-3.328-4.352-39.232-49.152-62.912-111.36-62.912-178.944l75.712 0L179.264 330.368 58.304 511.872l75.584 0c0 79.488 24.896 153.216 67.008 214.272 0.512 0.896 0.832 1.856 1.408 2.624 4.352 6.336 9.216 12.032 13.888 17.856 1.792 2.112 3.328 4.288 5.248 6.72 6.848 8.256 14.272 16.128 21.76 23.872 0.768 0.768 1.408 1.408 2.048 2.112 25.344 25.408 53.888 46.656 85.056 63.808 0.832 0.448 1.536 0.832 2.496 1.344 8.96 4.864 18.176 9.28 27.456 13.376 2.368 1.024 4.608 2.048 6.912 3.008 8.064 3.392 16.256 6.272 24.512 9.088 3.904 1.344 7.744 2.624 11.712 3.904 7.232 2.048 14.592 3.904 22.016 5.632 4.992 1.152 9.728 2.432 14.848 3.328 2.048 0.512 3.968 1.152 6.08 1.344 7.104 1.28 14.144 1.92 21.056 2.752 2.56 0.448 5.12 0.896 7.616 1.152 12.608 1.216 25.216 1.984 37.76 1.984 76.8 0 151.808-23.488 216.192-68.608 20.48-14.4 25.536-42.752 11.2-63.104C725.568 737.792 697.344 732.8 676.864 747.328M889.984 511.872c0-79.296-24.576-152.96-66.496-213.696-0.64-1.024-1.024-2.112-1.536-3.008-5.44-7.488-10.944-14.464-16.704-21.44-0.64-0.768-1.28-1.664-1.856-2.56-38.528-46.4-86.72-82.432-141.184-105.984-1.6-0.64-2.944-1.344-4.544-1.984-8.768-3.584-17.664-6.72-26.752-9.792-3.072-1.024-6.4-2.176-9.6-3.136C613.376 147.776 605.568 145.792 597.568 143.936c-4.416-0.96-8.96-2.112-13.376-3.008C581.952 140.544 579.968 139.904 577.6 139.456 571.648 138.496 565.76 137.92 559.744 137.216 555.584 136.704 551.616 136.064 547.392 135.616 537.344 134.656 527.36 134.272 517.376 134.08c-1.792 0-3.584-0.256-5.44-0.256-0.32 0-0.64 0.064-0.96 0.128C434.24 134.016 359.36 157.184 295.104 202.24c-20.48 14.336-25.536 42.624-11.072 63.232C298.304 285.888 326.72 290.944 347.264 276.48c49.6-34.688 107.456-52.352 166.848-51.776 8.512 0.064 17.024 0.448 25.28 1.28 2.56 0.192 5.056 0.576 7.616 0.96C553.856 227.84 560.64 228.736 567.296 230.144c2.88 0.512 5.888 1.28 8.64 1.92 6.656 1.472 13.056 3.008 19.456 4.992 2.112 0.576 4.032 1.28 6.016 2.048 7.424 2.368 14.656 4.928 21.568 7.872 0.768 0.192 1.472 0.768 2.176 1.024 42.368 18.176 79.424 46.144 108.416 81.216 0.064 0.128 0.192 0.384 0.448 0.576 40.768 49.664 65.216 113.024 65.28 182.08l-75.776 0 121.216 181.568 120.896-181.568L889.984 511.872 889.984 511.872zM889.984 511.872" /></svg>