<?xml version="1.0" standalone="no"?><!DOCTYPE svg PUBLIC "-//W3C//DTD SVG 1.1//EN" "http://www.w3.org/Graphics/SVG/1.1/DTD/svg11.dtd"><svg class="icon" width="200px" height="199.80px" viewBox="0 0 1025 1024" version="1.1" xmlns="http://www.w3.org/2000/svg"><path fill="#333333" d="M543.847 219.432 481.153 219.432 481.153 480.653 219.932 480.653 219.932 543.347 481.153 543.347 481.153 804.568 543.847 804.568 543.847 543.347 805.068 543.347 805.068 480.653 543.847 480.653ZM954.775 325.159C930.599 268 895.99 216.668 851.911 172.589S756.5 93.901 699.341 69.725C640.157 44.692 577.295 32 512.5 32S384.843 44.692 325.659 69.725C268.5 93.901 217.168 128.51 173.089 172.589S94.401 268 70.225 325.159C45.192 384.343 32.5 447.205 32.5 512s12.692 127.657 37.725 186.841C94.401 756 129.01 807.332 173.089 851.411s95.411 78.688 152.57 102.864C384.843 979.308 447.705 992 512.5 992s127.657-12.692 186.841-37.725c57.159-24.177 108.491-58.785 152.57-102.864S930.599 756 954.775 698.841C979.808 639.657 992.5 576.795 992.5 512S979.808 384.343 954.775 325.159zM936.355 691.05c-23.168 54.775-56.337 103.971-98.586 146.22s-91.444 75.418-146.22 98.586C634.846 959.839 574.604 972 512.5 972s-122.346-12.161-179.05-36.145c-54.775-23.168-103.971-56.337-146.22-98.586s-75.417-91.444-98.585-146.22C64.661 634.346 52.5 574.104 52.5 512c0-62.104 12.161-122.345 36.145-179.05 23.168-54.775 56.337-103.971 98.585-146.219 42.249-42.249 91.444-75.418 146.22-98.586C390.155 64.161 450.396 52 512.5 52s122.345 12.161 179.05 36.145c54.775 23.168 103.971 56.337 146.22 98.586 42.248 42.249 75.418 91.444 98.586 146.219C960.339 389.655 972.5 449.896 972.5 512 972.5 574.104 960.339 634.346 936.355 691.05z" /></svg>