<?xml version="1.0" standalone="no"?><!DOCTYPE svg PUBLIC "-//W3C//DTD SVG 1.1//EN" "http://www.w3.org/Graphics/SVG/1.1/DTD/svg11.dtd"><svg class="icon" width="200px" height="200.00px" viewBox="0 0 1024 1024" version="1.1" xmlns="http://www.w3.org/2000/svg"><path fill="#333333" d="M608.25545 960c-17.695686 0-31.99914-14.303454-31.99914-31.99914L576.25631 448c0-7.935278 2.94326-15.583282 8.255235-21.440559l208.799462-234.495794L230.432684 192.063647 439.648434 426.719419c5.215643 5.855557 8.095256 13.439914 8.095256 21.311544l0 288.768069 50.847359 41.152318c13.759871 11.136568 15.872275 31.264615 4.735708 44.991802s-31.264615 15.839591-44.991802 4.735708l-62.720172-50.752748c-7.52071-6.048219-11.872813-15.232361-11.872813-24.863755L383.74197 460.19277 135.135385 181.343368c-8.384249-9.407768-10.46397-22.880366-5.311974-34.400538 5.151996-11.487488 16.60852-18.911867 29.215858-18.911867l706.33603 0c12.672705 0 24.12751 7.455342 29.248542 19.008198 5.119312 11.552856 2.975944 25.056417-5.504636 34.431501L640.25631 460.287381l0 467.711759C640.25631 945.696546 625.952856 960 608.25545 960z" /></svg>