<?xml version="1.0" standalone="no"?><!DOCTYPE svg PUBLIC "-//W3C//DTD SVG 1.1//EN" "http://www.w3.org/Graphics/SVG/1.1/DTD/svg11.dtd"><svg class="icon" width="200px" height="200.00px" viewBox="0 0 1024 1024" version="1.1" xmlns="http://www.w3.org/2000/svg"><path fill="#333333" d="M512 597.333333h-85.333333a42.666667 42.666667 0 0 1 0-85.333333h85.333333a42.666667 42.666667 0 0 1 0 85.333333zM661.333333 746.666667a42.666667 42.666667 0 0 1-40.746666-30.08L512 366.506667l-108.586667 350.08a42.666667 42.666667 0 1 1-81.493333-25.173334l109.013333-351.786666a83.84 83.84 0 0 1 162.133334 0l109.013333 351.786666a42.666667 42.666667 0 0 1-28.16 53.333334A42.666667 42.666667 0 0 1 661.333333 746.666667zM704 917.333333H234.666667a128 128 0 0 1-128-128V234.666667a128 128 0 0 1 128-128h554.666666a128 128 0 0 1 128 128v320a42.666667 42.666667 0 0 1-85.333333 0V234.666667a42.666667 42.666667 0 0 0-42.666667-42.666667H234.666667a42.666667 42.666667 0 0 0-42.666667 42.666667v554.666666a42.666667 42.666667 0 0 0 42.666667 42.666667h469.333333a128 128 0 0 0 123.946667-96 42.666667 42.666667 0 1 1 82.773333 21.333333A213.333333 213.333333 0 0 1 704 917.333333z" /></svg>