<?xml version="1.0" standalone="no"?><!DOCTYPE svg PUBLIC "-//W3C//DTD SVG 1.1//EN" "http://www.w3.org/Graphics/SVG/1.1/DTD/svg11.dtd"><svg class="icon" width="200px" height="200.00px" viewBox="0 0 1024 1024" version="1.1" xmlns="http://www.w3.org/2000/svg"><path fill="#333333" d="M959.789552 960.030064L703.909808 704.15032M959.789552 1008.007516c-12.294222 0-24.588444-4.697792-33.884075-14.093377l-255.879744-255.879744c-18.691216-18.691216-18.691216-49.076935 0-67.868104 18.691216-18.691216 49.076935-18.691216 67.868104 0l255.879744 255.879744c18.691216 18.691216 18.691216 49.076935 0 67.868104-9.395584 9.395584-21.689806 14.093377-33.984029 14.093377zM543.585156 984.518555c-13.193799 0-25.887833-5.397463-34.983559-15.19286L318.390991 766.221149 42.320735 731.737355c-15.792578-1.999061-29.586095-11.694504-36.782713-25.787881-7.196618-14.19333-6.996712-30.985438 0.699671-44.978861L140.574559 417.285138 88.099221 144.013568c-2.998591-15.592672 1.899107-31.685109 13.193799-42.979801 11.294692-11.294692 27.387129-16.19239 42.979801-13.193799L417.544391 140.415259 661.229866 5.97844c13.89347-7.696383 30.785532-7.996242 44.978862-0.699671 14.19333 7.196618 23.888773 20.990135 25.78788 36.782713l34.483794 276.170208 203.104546 190.210607c11.594551 10.89488 17.091967 26.787411 14.593142 42.480036-2.498826 15.692625-12.594081 29.186283-26.987317 35.983089L705.209197 704.949944 587.064722 956.93152c-6.796806 14.393236-20.190511 24.488491-35.983089 26.987317-2.398873 0.399812-4.997651 0.599718-7.496477 0.599718zM124.382169 645.277988L347.477321 673.164882c11.094786 1.399342 21.389947 6.5969 29.08633 14.793048L530.291404 852.080797l95.455138-203.504359c4.797745-10.195209 12.89394-18.291404 23.089149-23.089149l203.504359-95.455139L688.217183 376.304398c-8.196148-7.696383-13.393705-17.991545-14.793048-29.08633l-27.886894-223.095152-196.807506 108.648938c-9.795396 5.397463-21.190041 7.196618-32.184874 5.097604l-220.896185-42.480035L238.128711 416.185655c2.099014 10.994833 0.299859 22.389478-5.097604 32.184874l-108.648938 196.907459z" /></svg>