<?xml version="1.0" standalone="no"?><!DOCTYPE svg PUBLIC "-//W3C//DTD SVG 1.1//EN" "http://www.w3.org/Graphics/SVG/1.1/DTD/svg11.dtd"><svg class="icon" width="200px" height="141.44px" viewBox="0 0 1448 1024" version="1.1" xmlns="http://www.w3.org/2000/svg"><path fill="#333333" d="M328.374937 824.80766h789.200739c14.105157 0 28.210314 11.352931 28.210314 28.210314 0 14.105157-11.352931 28.210314-28.210314 28.210314H328.374937c-14.105157 0-28.210314-11.352931-28.210314-28.210314 0-17.029397 14.105157-28.210314 28.210314-28.210314z m0-451.020998h507.269612c14.105157 0 28.210314 11.352931 28.210314 28.210314 0 14.105157-11.352931 28.210314-28.210314 28.210314H328.374937c-14.105157 0-28.210314-11.352931-28.210314-28.210314 0-16.857383 14.105157-28.210314 28.210314-28.210314z m0 225.510499h507.269612c14.105157 0 28.210314 11.352931 28.210314 28.210314 0 14.105157-11.352931 28.210314-28.210314 28.210314H328.374937c-14.105157 0-28.210314-11.352931-28.210314-28.210314 0-17.029397 14.105157-28.210314 28.210314-28.210314z m0-451.020998h789.200739c14.105157 0 28.210314 14.105157 28.210314 28.210314s-11.352931 28.210314-28.210314 28.210315H328.374937c-14.105157 0-28.210314-14.105157-28.210314-28.210315s14.105157-28.210314 28.210314-28.210314z m805.886108 341.103981l-163.413405-115.593482c-8.600706-6.364522-19.953637-7.396607-29.586427-2.752226-9.63279 4.816395-15.653284 14.449185-15.653284 25.286075v233.93919c0 22.533848 25.286074 36.639006 45.067697 22.533848l163.413405-115.593482c14.277171-14.105157 14.277171-36.639006 0.172014-47.819923z m0 0" /></svg>