<?xml version="1.0" standalone="no"?><!DOCTYPE svg PUBLIC "-//W3C//DTD SVG 1.1//EN" "http://www.w3.org/Graphics/SVG/1.1/DTD/svg11.dtd"><svg class="icon" width="200px" height="200.00px" viewBox="0 0 1024 1024" version="1.1" xmlns="http://www.w3.org/2000/svg"><path fill="#333333" d="M325.456896 862.27968M882.05824 862.27968M236.027904 877.161472M960.132096 877.161472M63.683584 788.737024M958.46912 788.737024M81.267712 878.01344M1023.476736 878.01344M33.808384 851.673088M284.454912 672.907264c0-17.73568 7.934976-34.538496 23.33696-49.941504l111.553536-111.54944L307.791872 400.318464c-15.422464-15.363072-23.33696-32.200704-23.33696-49.932288l0-3.267584c0-7.934976 0.116736-13.963264 3.733504-23.34208 3.403776-8.819712 7.2448-16.564224 13.536256-22.404096 6.310912-5.843968 14.0032-10.262528 22.87104-13.530112 5.134336-2.80576 12.602368-4.201472 22.404096-4.201472l3.267584 0c7.468032 0 16.841728 2.71872 25.670656 6.530048 11.707392 5.061632 16.31744 9.821184 24.271872 17.736704l111.553536 111.082496 110.619648-111.082496c14.430208-14.497792 31.739904-24.266752 50.87744-24.266752l4.200448 0c17.736704 0 32.672768 6.063104 44.341248 17.731584 7.002112 7.002112 11.145216 14.488576 13.536256 22.404096 2.255872 7.487488 3.733504 15.407104 3.733504 23.34208l0 3.267584c0 7.934976-1.963008 16.297984-6.0672 25.66656-4.288512 9.76896-9.324544 16.351232-17.26976 24.265728L604.179456 511.41632l111.553536 111.54944c15.403008 15.403008 23.33696 32.205824 23.33696 49.941504l0 3.26656c0 10.268672-1.690624 18.028544-4.667392 23.337984-1.585152 7.896064-7.001088 13.070336-12.603392 22.404096-10.734592 11.20256-25.670656 16.802816-44.341248 16.802816l-4.200448 0c-18.203648 0-35.007488-7.933952-50.87744-23.803904L511.762432 604.295168 400.208896 714.914816c-15.937536 15.81056-31.73888 23.803904-49.942528 23.803904l-3.267584 0c-9.801728 0-17.26976-1.399808-22.404096-4.201472-9.801728-3.733504-17.37728-6.903808-22.87104-12.602368-6.641664-6.903808-11.134976-14.487552-13.536256-22.404096-2.265088-7.487488-3.733504-15.403008-3.733504-23.337984L284.453888 672.907264zM63.213568 511.41632c0 125.084672 41.539584 228.237312 131.156992 317.852672 89.616384 89.617408 192.768 130.691072 317.391872 130.691072S739.528704 918.8864 829.144064 829.268992c89.61536-89.616384 131.168256-192.768 131.168256-317.852672 0-124.627968-41.552896-227.776512-131.168256-317.392896C739.528704 104.408064 636.38528 63.333376 511.762432 63.333376S283.987968 104.408064 194.37056 194.023424C104.754176 283.639808 63.213568 386.788352 63.213568 511.41632zM999.051264 851.673088" /></svg>