<?xml version="1.0" standalone="no"?><!DOCTYPE svg PUBLIC "-//W3C//DTD SVG 1.1//EN" "http://www.w3.org/Graphics/SVG/1.1/DTD/svg11.dtd"><svg class="icon" width="200px" height="200.00px" viewBox="0 0 1024 1024" version="1.1" xmlns="http://www.w3.org/2000/svg"><path fill="#333333" d="M512 0a512 512 0 1 0 0.068267 1024.068267A512 512 0 0 0 512 0z m0 256c-33.723733 0-66.628267-3.003733-98.5088-8.6016C443.460267 127.249067 488.448 63.965867 512 63.965867s68.539733 63.214933 98.5088 183.432533c-31.880533 5.461333-64.853333 8.6016-98.5088 8.6016z m160.768-23.3472c-15.496533-63.624533-36.317867-117.213867-60.6208-157.013333a447.351467 447.351467 0 0 1 193.1264 98.440533 542.583467 542.583467 0 0 1-132.437333 58.5728z m-321.536 0a546.133333 546.133333 0 0 1-132.437333-58.5728 446.737067 446.737067 0 0 1 193.058133-98.304c-24.302933 39.594667-45.056 93.252267-60.6208 156.8768z m352.256 247.330133a1232.622933 1232.622933 0 0 0-17.681067-184.456533 605.115733 605.115733 0 0 0 165.4784-75.1616 445.576533 445.576533 0 0 1 107.178667 259.618133h-255.044267z m-637.883733 0A446.0544 446.0544 0 0 1 172.4416 220.501333a604.501333 604.501333 0 0 0 165.751467 75.025067c-9.966933 56.661333-16.110933 118.784-17.6128 184.5248H65.536z m318.941866 0c1.501867-63.624533 7.3728-120.4224 15.906134-169.984a637.610667 637.610667 0 0 0 223.095466 0.2048c8.533333 49.425067 14.336 106.222933 15.906134 169.7792H384.546133z m466.7392 323.652267a605.115733 605.115733 0 0 0-165.4784-75.1616 1235.626667 1235.626667 0 0 0 17.6128-184.456533h254.976a445.576533 445.576533 0 0 1-107.1104 259.618133z m-450.833066-89.7024a1173.0944 1173.0944 0 0 1-15.906134-169.984h254.7712c-1.501867 63.624533-7.236267 120.4224-15.906133 169.847467a636.381867 636.381867 0 0 0-222.958933 0.136533z m-227.874134 89.634133A445.371733 445.371733 0 0 1 65.7408 544.017067h254.976c1.4336 65.672533 7.645867 127.863467 17.544533 184.5248-60.074667 17.2032-115.985067 42.461867-165.6832 75.025066zM512 959.965867c-23.552 0-68.539733-63.146667-98.5088-183.364267 31.880533-5.461333 64.853333-8.6016 98.5088-8.6016 33.723733 0 66.628267 3.072 98.5088 8.6016-29.969067 120.149333-74.9568 183.432533-98.5088 183.432533z m100.1472-11.605334c24.302933-39.799467 45.056-93.3888 60.6208-157.013333a544.768 544.768 0 0 1 132.437333 58.504533 446.2592 446.2592 0 0 1-193.058133 98.5088z m-200.2944 0a446.737067 446.737067 0 0 1-192.989867-98.304 537.941333 537.941333 0 0 1 132.369067-58.641066c15.633067 63.556267 36.317867 117.1456 60.6208 156.945066z" /></svg>